<svg xmlns="http://www.w3.org/2000/svg" viewBox="0 0 192 192" width="100%" height="100%">
  <rect width="192" height="192" rx="36" fill="#00823B" />
  <g transform="translate(16, 16) scale(1.6)">
    <!-- Inner Rounded Card with Turquoise mint background -->
    <rect width="100" height="100" rx="20" fill="#A8DADC" />
    <circle cx="50" cy="52" r="42" fill="#C8E6C9" />
    
    <!-- Bird Body Emerald Green -->
    <path d="M48 26 C36 26 24 38 24 58 C24 76 38 90 54 90 C70 90 82 78 82 62 C82 46 64 26 48 26 Z" fill="#0E4D34" />
    
    <!-- White Chest & Neck -->
    <path d="M50 28 C42 28 36 36 36 46 C36 60 48 76 60 84 C66 78 72 70 72 60 C72 44 62 28 50 28 Z" fill="#FFFFFF" />
    
    <!-- Red Crest / Crown -->
    <path d="M46 16 C34 16 30 30 38 42 C44 34 48 24 46 16 Z" fill="#E53935" />
    <circle cx="43" cy="28" r="7" fill="#E53935" />
    
    <!-- Eye -->
    <circle cx="52" cy="38" r="4.5" fill="#1E293B" />
    <circle cx="54" cy="36.5" r="1.5" fill="#FFFFFF" />
    
    <!-- Sharp Dark Beak -->
    <path d="M58 40 L92 35 L62 48 Z" fill="#0A3622" />
  </g>
</svg>
